<svg width="120" height="48" viewBox="0 0 120 48" fill="none" xmlns="http://www.w3.org/2000/svg">
<g clip-path="url(#clip0_202_774)">
<path d="M101.549 11.1885V3.83779H80.9794L77.593 28.3855L74.2474 3.83779H66.8295L67.6584 10.3927C66.8033 8.71267 63.7678 3.83779 57.0838 3.83779C57.0394 3.83491 49.657 3.83779 49.657 3.83779L49.6263 39.618L44.2208 3.83779L34.5046 3.83491L28.9116 40.907L28.9148 3.83779H19.6143L16.2627 24.6621L12.9977 3.83779H3.6958V44.1415H11.0213V24.7149L14.354 44.1415H18.2477L21.5333 24.7149V44.1415H35.6544L36.5084 37.9423H42.1935L43.0474 44.1415L56.9124 44.1504H56.9225V44.1415H56.9398V31.0605L58.6376 30.8148L62.1562 44.1504H69.3281L69.3252 44.1415H69.3456L64.7285 28.5151C67.0664 26.7921 69.709 22.4241 69.0058 18.2436V18.2421C69.0144 18.2964 73.3652 44.1684 73.3652 44.1684L81.8933 44.142L87.7203 7.61323V44.142H101.548V36.8942H94.9858V27.6525H101.548V20.2941H94.9858V11.1885H101.549ZM37.3712 31.5528L39.384 14.3203L41.4696 31.5528H37.3712ZM58.6611 23.5956C58.0985 23.8651 57.5129 24 56.9398 24.0014V11.039C56.9487 11.039 56.9621 11.0376 56.9765 11.0376C57.5477 11.0332 61.8252 11.2089 61.8252 17.4477C61.8252 20.7112 60.3708 22.7695 58.6611 23.5956ZM116.306 36.8875V44.1326H102.814V3.83203H110.08V36.8875H116.306Z" fill="white"/>
</g>
<defs>
<clipPath id="clip0_202_774">
<rect width="120" height="48" fill="white"/>
</clipPath>
</defs>
</svg>
